<?xml version="1.0" standalone="no"?>
<!DOCTYPE svg PUBLIC "-//W3C//DTD SVG 20010904//EN"
 "http://www.w3.org/TR/2001/REC-SVG-20010904/DTD/svg10.dtd">
<svg version="1.0" xmlns="http://www.w3.org/2000/svg"
 width="1280.000000pt" height="978.000000pt" viewBox="0 0 1280.000000 978.000000"
 preserveAspectRatio="xMidYMid meet">
<metadata>
Created by potrace 1.15, written by Peter Selinger 2001-2017
</metadata>
<g transform="translate(0.000000,978.000000) scale(0.100000,-0.100000)"
fill="#000000" stroke="none">
<path d="M6630 8103 c-547 -8 -880 -21 -896 -34 -13 -11 -90 -15 -353 -21
-233 -4 -361 -11 -419 -22 -56 -10 -204 -19 -455 -25 -205 -6 -412 -13 -462
-17 -94 -6 -296 -14 -870 -33 -187 -6 -392 -16 -455 -22 -63 -5 -203 -14 -310
-19 -107 -6 -218 -15 -246 -21 -41 -9 -56 -9 -80 3 -24 13 -59 14 -209 7 -99
-5 -225 -15 -279 -24 -55 -8 -151 -15 -215 -15 -132 0 -176 -14 -200 -64 -27
-58 -37 -365 -25 -789 l6 -228 32 -39 c82 -105 88 -114 65 -122 -13 -4 -15
-97 -11 -891 l3 -647 85 -148 c48 -81 97 -163 110 -183 13 -19 24 -42 24 -52
0 -20 -60 -67 -86 -67 -10 0 -63 -11 -119 -25 -98 -24 -331 -75 -430 -94 -135
-25 -174 -34 -225 -48 -30 -8 -86 -21 -125 -29 -146 -30 -185 -77 -185 -220 0
-82 0 -83 38 -122 21 -22 52 -43 69 -46 45 -10 53 -25 68 -123 8 -49 18 -101
24 -118 14 -45 23 -749 9 -783 -6 -15 -12 -60 -13 -100 -4 -92 -23 -127 -67
-118 -41 8 -62 -6 -87 -57 -25 -52 -26 -69 -5 -113 19 -40 110 -94 159 -94 43
0 65 -27 65 -77 0 -34 6 -46 31 -67 17 -14 34 -26 38 -26 4 0 41 -30 82 -66
41 -36 122 -94 182 -130 59 -35 133 -82 165 -103 31 -22 158 -90 282 -153 248
-126 355 -188 445 -258 33 -26 83 -60 110 -75 28 -16 77 -48 110 -71 33 -23
132 -78 220 -122 88 -44 187 -96 220 -116 33 -20 83 -44 112 -52 51 -15 108
-12 458 21 28 2 109 9 180 15 72 6 225 20 340 31 116 10 296 26 400 34 105 9
217 22 250 30 152 35 375 55 610 54 83 -1 209 4 280 10 72 6 157 13 190 16 33
3 110 10 170 15 115 11 228 20 530 46 334 28 712 59 995 84 216 18 315 29 365
39 77 16 247 31 350 31 84 0 585 32 695 45 25 3 128 12 230 20 487 39 2291
191 2494 210 86 8 178 20 204 26 26 6 79 14 117 19 72 9 149 23 220 39 22 5
74 17 115 26 85 19 116 42 129 94 5 20 14 54 19 76 20 81 23 218 8 345 -9 69
-20 139 -25 155 -7 24 -37 91 -46 103 -4 4 -707 269 -760 285 -28 9 -97 32
-154 52 -58 19 -114 35 -125 35 -12 0 -29 7 -38 14 -16 12 -11 16 45 35 34 12
104 32 155 46 51 13 101 29 111 35 11 5 33 10 49 10 16 0 74 12 128 26 54 14
121 29 148 34 103 19 144 39 190 93 24 29 47 63 51 77 4 14 25 60 46 103 55
108 70 190 76 408 14 463 -58 815 -223 1092 -54 90 -80 114 -143 133 -63 18
-62 18 -466 38 -165 8 -312 19 -326 24 -41 16 -52 105 -49 421 2 269 -8 498
-30 649 -12 85 0 273 17 279 30 10 74 47 87 71 8 15 18 72 22 125 l7 96 -43
66 c-24 36 -52 71 -64 78 -15 8 -205 13 -681 18 -587 5 -664 8 -692 22 -17 9
-34 21 -37 26 -3 5 -28 12 -55 16 -89 12 -86 -2 -84 387 2 377 1 373 68 405
46 22 45 46 -2 69 -36 18 -84 19 -1003 22 -531 1 -1030 3 -1110 5 -80 1 -224
1 -320 0z"/>
</g>
</svg>
